	
No (2012)
 118 min  -  Drama  -   9 August 2012 (Chile)

An ad executive comes up with a campaign to defeat Augusto Pinochet in Chile's 1988 referendum.

Director: Pablo Larraín
Writer: Pedro Peirano (screenplay)
Stars: Jane Fonda, Gael García Bernal and Christopher Reeve

Format                                   : MPEG-PS
File size                                : 1 024 MiB
Duration                                 : 36mn 21s
Overall bit rate mode                    : Variable
Overall bit rate                         : 3 937 Kbps

Video
ID                                       : 224 (0xE0)
Format                                   : MPEG Video
Format version                           : Version 2
Format profile                           : Main@Main
Format settings, BVOP                    : Yes
Format settings, Matrix                  : Custom
Format settings, GOP                     : M=3, N=12
Duration                                 : 36mn 21s
Bit rate mode                            : Variable
Bit rate                                 : 3 666 Kbps
Maximum bit rate                         : 7 500 Kbps
Width                                    : 720 pixels
Height                                   : 480 pixels
Display aspect ratio                     : 16:9
Frame rate                               : 23.976 fps
Standard                                 : NTSC
Color space                              : YUV
Chroma subsampling                       : 4:2:0
Bit depth                                : 8 bits
Scan type                                : Progressive
Scan order                               : 2:3 Pulldown
Compression mode                         : Lossy
Bits/(Pixel*Frame)                       : 0.442
Stream size                              : 954 MiB (93%)
Color primaries                          : BT.601 NTSC
Transfer characteristics                 : BT.601
Matrix coefficients                      : BT.601

Audio
ID                                       : 189 (0xBD)-128 (0x80)
Format                                   : AC-3
Format/Info                              : Audio Coding 3
Mode extension                           : CM (complete main)
Format settings, Endianness              : Big
Muxing mode                              : DVD-Video
Duration                                 : 36mn 21s
Bit rate mode                            : Constant
Bit rate                                 : 192 Kbps
Channel(s)                               : 2 channels
Channel positions                        : Front: L R
Sampling rate                            : 48.0 KHz
Bit depth                                : 16 bits
Compression mode                         : Lossy
Stream size                              : 49.9 MiB (5%)
